<svg width="1440" height="948" viewBox="0 0 1440 948" fill="none" xmlns="http://www.w3.org/2000/svg">
<path d="M1446.33 125.672C1446 267.746 1483.47 469.226 1367.04 617.921C1253.35 763.13 1067.37 787.537 973.109 747.291C857.203 697.803 799.484 600.843 739.34 499.808L737.752 497.14C677.551 396.02 661.251 385.579 597.4 344.68L595.735 343.614C418.089 229.812 241.664 340.522 162.659 437.555C74.3698 545.989 26.1388 657.387 -0.361185 761.5C40.7886 742.175 -37.4692 1035.34 -27.0312 920.678C-22.4857 870.745 -14.5294 817.164 -0.361185 761.5V-68L689.318 -57.5H1446.33V125.672Z" fill="url(#paint0_linear_410_63)" fill-opacity="0.34"/>
<defs>
<linearGradient id="paint0_linear_410_63" x1="554.318" y1="-416.5" x2="554.318" y2="947.5" gradientUnits="userSpaceOnUse">
<stop stop-color="#74CF4E"/>
<stop offset="1" stop-color="#74CF4E" stop-opacity="0"/>
</linearGradient>
</defs>
</svg>
